G04 #@! TF.GenerationSoftware,KiCad,Pcbnew,(5.1.0-11-g23086decc)*
G04 #@! TF.CreationDate,2019-04-24T18:44:19+02:00*
G04 #@! TF.ProjectId,USB-EMI-Filter,5553422d-454d-4492-9d46-696c7465722e,rev?*
G04 #@! TF.SameCoordinates,Original*
G04 #@! TF.FileFunction,Soldermask,Top*
G04 #@! TF.FilePolarity,Negative*
%FSLAX46Y46*%
G04 Gerber Fmt 4.6, Leading zero omitted, Abs format (unit mm)*
G04 Created by KiCad (PCBNEW (5.1.0-11-g23086decc)) date 2019-04-24 18:44:19*
%MOMM*%
%LPD*%
G04 APERTURE LIST*
%ADD10C,0.100000*%
G04 APERTURE END LIST*
D10*
G36*
X166972585Y-122798802D02*
G01*
X167122410Y-122828604D01*
X167404674Y-122945521D01*
X167658705Y-123115259D01*
X167874741Y-123331295D01*
X168044479Y-123585326D01*
X168161396Y-123867590D01*
X168161396Y-123867591D01*
X168221000Y-124167239D01*
X168221000Y-124472761D01*
X168207426Y-124541000D01*
X168161396Y-124772410D01*
X168044479Y-125054674D01*
X167874741Y-125308705D01*
X167658705Y-125524741D01*
X167404674Y-125694479D01*
X167122410Y-125811396D01*
X166972585Y-125841198D01*
X166822761Y-125871000D01*
X166517239Y-125871000D01*
X166367415Y-125841198D01*
X166217590Y-125811396D01*
X165935326Y-125694479D01*
X165681295Y-125524741D01*
X165465259Y-125308705D01*
X165295521Y-125054674D01*
X165178604Y-124772410D01*
X165132574Y-124541000D01*
X165119000Y-124472761D01*
X165119000Y-124167239D01*
X165178604Y-123867591D01*
X165178604Y-123867590D01*
X165295521Y-123585326D01*
X165465259Y-123331295D01*
X165681295Y-123115259D01*
X165935326Y-122945521D01*
X166217590Y-122828604D01*
X166367415Y-122798802D01*
X166517239Y-122769000D01*
X166822761Y-122769000D01*
X166972585Y-122798802D01*
X166972585Y-122798802D01*
G37*
G36*
X158810443Y-122745519D02*
G01*
X158876627Y-122752037D01*
X159046466Y-122803557D01*
X159202991Y-122887222D01*
X159238729Y-122916552D01*
X159340186Y-122999814D01*
X159423448Y-123101271D01*
X159452778Y-123137009D01*
X159536443Y-123293534D01*
X159587963Y-123463373D01*
X159605359Y-123640000D01*
X159587963Y-123816627D01*
X159536443Y-123986466D01*
X159452778Y-124142991D01*
X159432878Y-124167239D01*
X159340186Y-124280186D01*
X159238729Y-124363448D01*
X159202991Y-124392778D01*
X159202989Y-124392779D01*
X159053355Y-124472761D01*
X159046466Y-124476443D01*
X158876627Y-124527963D01*
X158810443Y-124534481D01*
X158744260Y-124541000D01*
X158655740Y-124541000D01*
X158589557Y-124534481D01*
X158523373Y-124527963D01*
X158353534Y-124476443D01*
X158346646Y-124472761D01*
X158197011Y-124392779D01*
X158197009Y-124392778D01*
X158161271Y-124363448D01*
X158059814Y-124280186D01*
X157967122Y-124167239D01*
X157947222Y-124142991D01*
X157863557Y-123986466D01*
X157812037Y-123816627D01*
X157794641Y-123640000D01*
X157812037Y-123463373D01*
X157863557Y-123293534D01*
X157947222Y-123137009D01*
X157976552Y-123101271D01*
X158059814Y-122999814D01*
X158161271Y-122916552D01*
X158197009Y-122887222D01*
X158353534Y-122803557D01*
X158523373Y-122752037D01*
X158589557Y-122745519D01*
X158655740Y-122739000D01*
X158744260Y-122739000D01*
X158810443Y-122745519D01*
X158810443Y-122745519D01*
G37*
G36*
X129881000Y-124051000D02*
G01*
X126779000Y-124051000D01*
X126779000Y-121949000D01*
X129881000Y-121949000D01*
X129881000Y-124051000D01*
X129881000Y-124051000D01*
G37*
G36*
X137201000Y-123871000D02*
G01*
X135099000Y-123871000D01*
X135099000Y-122569000D01*
X137201000Y-122569000D01*
X137201000Y-123871000D01*
X137201000Y-123871000D01*
G37*
G36*
X144701000Y-123871000D02*
G01*
X142599000Y-123871000D01*
X142599000Y-122569000D01*
X144701000Y-122569000D01*
X144701000Y-123871000D01*
X144701000Y-123871000D01*
G37*
G36*
X162276000Y-123251000D02*
G01*
X160924000Y-123251000D01*
X160924000Y-122149000D01*
X162276000Y-122149000D01*
X162276000Y-123251000D01*
X162276000Y-123251000D01*
G37*
G36*
X156476000Y-123251000D02*
G01*
X155124000Y-123251000D01*
X155124000Y-122149000D01*
X156476000Y-122149000D01*
X156476000Y-123251000D01*
X156476000Y-123251000D01*
G37*
G36*
X154576000Y-123251000D02*
G01*
X153224000Y-123251000D01*
X153224000Y-122149000D01*
X154576000Y-122149000D01*
X154576000Y-123251000D01*
X154576000Y-123251000D01*
G37*
G36*
X149226000Y-122601000D02*
G01*
X148374000Y-122601000D01*
X148374000Y-121699000D01*
X149226000Y-121699000D01*
X149226000Y-122601000D01*
X149226000Y-122601000D01*
G37*
G36*
X134326000Y-122601000D02*
G01*
X133474000Y-122601000D01*
X133474000Y-121699000D01*
X134326000Y-121699000D01*
X134326000Y-122601000D01*
X134326000Y-122601000D01*
G37*
G36*
X159601000Y-122001000D02*
G01*
X157799000Y-122001000D01*
X157799000Y-120199000D01*
X159601000Y-120199000D01*
X159601000Y-122001000D01*
X159601000Y-122001000D01*
G37*
G36*
X164233642Y-119989781D02*
G01*
X164379414Y-120050162D01*
X164379416Y-120050163D01*
X164510608Y-120137822D01*
X164622178Y-120249392D01*
X164706439Y-120375499D01*
X164709838Y-120380586D01*
X164770219Y-120526358D01*
X164801000Y-120681107D01*
X164801000Y-120838893D01*
X164770219Y-120993642D01*
X164709838Y-121139414D01*
X164709837Y-121139416D01*
X164622178Y-121270608D01*
X164510608Y-121382178D01*
X164379416Y-121469837D01*
X164379415Y-121469838D01*
X164379414Y-121469838D01*
X164233642Y-121530219D01*
X164078893Y-121561000D01*
X163921107Y-121561000D01*
X163766358Y-121530219D01*
X163620586Y-121469838D01*
X163620585Y-121469838D01*
X163620584Y-121469837D01*
X163489392Y-121382178D01*
X163377822Y-121270608D01*
X163290163Y-121139416D01*
X163290162Y-121139414D01*
X163229781Y-120993642D01*
X163199000Y-120838893D01*
X163199000Y-120681107D01*
X163229781Y-120526358D01*
X163290162Y-120380586D01*
X163293561Y-120375499D01*
X163377822Y-120249392D01*
X163489392Y-120137822D01*
X163620584Y-120050163D01*
X163620586Y-120050162D01*
X163766358Y-119989781D01*
X163921107Y-119959000D01*
X164078893Y-119959000D01*
X164233642Y-119989781D01*
X164233642Y-119989781D01*
G37*
G36*
X131233642Y-119989781D02*
G01*
X131379414Y-120050162D01*
X131379416Y-120050163D01*
X131510608Y-120137822D01*
X131622178Y-120249392D01*
X131706439Y-120375499D01*
X131709838Y-120380586D01*
X131770219Y-120526358D01*
X131801000Y-120681107D01*
X131801000Y-120838893D01*
X131770219Y-120993642D01*
X131709838Y-121139414D01*
X131709837Y-121139416D01*
X131622178Y-121270608D01*
X131510608Y-121382178D01*
X131379416Y-121469837D01*
X131379415Y-121469838D01*
X131379414Y-121469838D01*
X131233642Y-121530219D01*
X131078893Y-121561000D01*
X130921107Y-121561000D01*
X130766358Y-121530219D01*
X130620586Y-121469838D01*
X130620585Y-121469838D01*
X130620584Y-121469837D01*
X130489392Y-121382178D01*
X130377822Y-121270608D01*
X130290163Y-121139416D01*
X130290162Y-121139414D01*
X130229781Y-120993642D01*
X130199000Y-120838893D01*
X130199000Y-120681107D01*
X130229781Y-120526358D01*
X130290162Y-120380586D01*
X130293561Y-120375499D01*
X130377822Y-120249392D01*
X130489392Y-120137822D01*
X130620584Y-120050163D01*
X130620586Y-120050162D01*
X130766358Y-119989781D01*
X130921107Y-119959000D01*
X131078893Y-119959000D01*
X131233642Y-119989781D01*
X131233642Y-119989781D01*
G37*
G36*
X144701000Y-121331000D02*
G01*
X142599000Y-121331000D01*
X142599000Y-120029000D01*
X144701000Y-120029000D01*
X144701000Y-121331000D01*
X144701000Y-121331000D01*
G37*
G36*
X137201000Y-121331000D02*
G01*
X135099000Y-121331000D01*
X135099000Y-120029000D01*
X137201000Y-120029000D01*
X137201000Y-121331000D01*
X137201000Y-121331000D01*
G37*
G36*
X146951000Y-119999001D02*
G01*
X146951000Y-120274001D01*
X146953402Y-120298387D01*
X146960515Y-120321836D01*
X146972066Y-120343447D01*
X146987611Y-120362389D01*
X147006553Y-120377934D01*
X147028164Y-120389485D01*
X147051613Y-120396598D01*
X147075999Y-120399000D01*
X147551000Y-120399000D01*
X147551000Y-120901000D01*
X147075999Y-120901000D01*
X147051613Y-120903402D01*
X147028164Y-120910515D01*
X147006553Y-120922066D01*
X146987611Y-120937611D01*
X146972066Y-120956553D01*
X146960515Y-120978164D01*
X146953402Y-121001613D01*
X146951000Y-121025999D01*
X146951000Y-121301000D01*
X146049000Y-121301000D01*
X146049000Y-121025999D01*
X146046598Y-121001613D01*
X146039485Y-120978164D01*
X146027934Y-120956553D01*
X146012389Y-120937611D01*
X145993447Y-120922066D01*
X145971836Y-120910515D01*
X145948387Y-120903402D01*
X145924001Y-120901000D01*
X145449000Y-120901000D01*
X145449000Y-120589997D01*
X145951000Y-120589997D01*
X145951000Y-120710002D01*
X145953402Y-120734388D01*
X145960515Y-120757837D01*
X145972066Y-120779448D01*
X145987611Y-120798390D01*
X146006553Y-120813935D01*
X146028164Y-120825486D01*
X146051613Y-120832599D01*
X146075999Y-120835001D01*
X146100385Y-120832599D01*
X146123834Y-120825486D01*
X146145445Y-120813935D01*
X146163644Y-120799000D01*
X146836356Y-120799000D01*
X146854555Y-120813935D01*
X146876166Y-120825486D01*
X146899615Y-120832599D01*
X146924001Y-120835001D01*
X146948387Y-120832599D01*
X146971836Y-120825486D01*
X146993447Y-120813935D01*
X147012389Y-120798390D01*
X147027934Y-120779448D01*
X147039485Y-120757837D01*
X147046598Y-120734388D01*
X147049000Y-120710002D01*
X147049000Y-120589997D01*
X147046598Y-120565611D01*
X147039485Y-120542162D01*
X147027934Y-120520551D01*
X147012389Y-120501609D01*
X146993447Y-120486064D01*
X146971836Y-120474513D01*
X146948387Y-120467400D01*
X146924001Y-120464998D01*
X146899615Y-120467400D01*
X146876166Y-120474513D01*
X146854555Y-120486064D01*
X146836355Y-120501000D01*
X146500000Y-120501000D01*
X146163644Y-120500999D01*
X146145445Y-120486064D01*
X146123834Y-120474513D01*
X146100385Y-120467400D01*
X146075999Y-120464998D01*
X146051613Y-120467400D01*
X146028164Y-120474513D01*
X146006553Y-120486064D01*
X145987611Y-120501609D01*
X145972066Y-120520551D01*
X145960515Y-120542162D01*
X145953402Y-120565611D01*
X145951000Y-120589997D01*
X145449000Y-120589997D01*
X145449000Y-120399000D01*
X145924001Y-120399000D01*
X145948387Y-120396598D01*
X145971836Y-120389485D01*
X145993447Y-120377934D01*
X146012389Y-120362389D01*
X146027934Y-120343447D01*
X146039485Y-120321836D01*
X146046598Y-120298387D01*
X146049000Y-120274001D01*
X146049000Y-119999000D01*
X146049001Y-119999000D01*
X146951000Y-119999001D01*
X146951000Y-119999001D01*
G37*
G36*
X156476000Y-121251000D02*
G01*
X155124000Y-121251000D01*
X155124000Y-120149000D01*
X156476000Y-120149000D01*
X156476000Y-121251000D01*
X156476000Y-121251000D01*
G37*
G36*
X162276000Y-121251000D02*
G01*
X160924000Y-121251000D01*
X160924000Y-120149000D01*
X162276000Y-120149000D01*
X162276000Y-121251000D01*
X162276000Y-121251000D01*
G37*
G36*
X154576000Y-121251000D02*
G01*
X153224000Y-121251000D01*
X153224000Y-120149000D01*
X154576000Y-120149000D01*
X154576000Y-121251000D01*
X154576000Y-121251000D01*
G37*
G36*
X149226000Y-121101000D02*
G01*
X148374000Y-121101000D01*
X148374000Y-120199000D01*
X149226000Y-120199000D01*
X149226000Y-121101000D01*
X149226000Y-121101000D01*
G37*
G36*
X134326000Y-121101000D02*
G01*
X133474000Y-121101000D01*
X133474000Y-120199000D01*
X134326000Y-120199000D01*
X134326000Y-121101000D01*
X134326000Y-121101000D01*
G37*
G36*
X152601000Y-121076000D02*
G01*
X151699000Y-121076000D01*
X151699000Y-120224000D01*
X152601000Y-120224000D01*
X152601000Y-121076000D01*
X152601000Y-121076000D01*
G37*
G36*
X151101000Y-121076000D02*
G01*
X150199000Y-121076000D01*
X150199000Y-120224000D01*
X151101000Y-120224000D01*
X151101000Y-121076000D01*
X151101000Y-121076000D01*
G37*
G36*
X128519890Y-118874017D02*
G01*
X128638364Y-118923091D01*
X128744988Y-118994335D01*
X128835665Y-119085012D01*
X128906909Y-119191636D01*
X128955983Y-119310110D01*
X128981000Y-119435882D01*
X128981000Y-119564118D01*
X128955983Y-119689890D01*
X128906909Y-119808364D01*
X128835665Y-119914988D01*
X128744988Y-120005665D01*
X128638364Y-120076909D01*
X128638363Y-120076910D01*
X128638362Y-120076910D01*
X128519890Y-120125983D01*
X128394119Y-120151000D01*
X128265881Y-120151000D01*
X128140110Y-120125983D01*
X128021638Y-120076910D01*
X128021637Y-120076910D01*
X128021636Y-120076909D01*
X127915012Y-120005665D01*
X127824335Y-119914988D01*
X127753091Y-119808364D01*
X127704017Y-119689890D01*
X127679000Y-119564118D01*
X127679000Y-119435882D01*
X127704017Y-119310110D01*
X127753091Y-119191636D01*
X127824335Y-119085012D01*
X127915012Y-118994335D01*
X128021636Y-118923091D01*
X128140110Y-118874017D01*
X128265881Y-118849000D01*
X128394119Y-118849000D01*
X128519890Y-118874017D01*
X128519890Y-118874017D01*
G37*
G36*
X131233642Y-117449781D02*
G01*
X131379414Y-117510162D01*
X131379416Y-117510163D01*
X131510608Y-117597822D01*
X131622178Y-117709392D01*
X131709837Y-117840584D01*
X131709838Y-117840586D01*
X131770219Y-117986358D01*
X131801000Y-118141107D01*
X131801000Y-118298893D01*
X131770219Y-118453642D01*
X131709838Y-118599414D01*
X131709837Y-118599416D01*
X131622178Y-118730608D01*
X131510608Y-118842178D01*
X131379416Y-118929837D01*
X131379415Y-118929838D01*
X131379414Y-118929838D01*
X131233642Y-118990219D01*
X131078893Y-119021000D01*
X130921107Y-119021000D01*
X130766358Y-118990219D01*
X130620586Y-118929838D01*
X130620585Y-118929838D01*
X130620584Y-118929837D01*
X130489392Y-118842178D01*
X130377822Y-118730608D01*
X130290163Y-118599416D01*
X130290162Y-118599414D01*
X130229781Y-118453642D01*
X130199000Y-118298893D01*
X130199000Y-118141107D01*
X130229781Y-117986358D01*
X130290162Y-117840586D01*
X130290163Y-117840584D01*
X130377822Y-117709392D01*
X130489392Y-117597822D01*
X130620584Y-117510163D01*
X130620586Y-117510162D01*
X130766358Y-117449781D01*
X130921107Y-117419000D01*
X131078893Y-117419000D01*
X131233642Y-117449781D01*
X131233642Y-117449781D01*
G37*
G36*
X164233642Y-117449781D02*
G01*
X164379414Y-117510162D01*
X164379416Y-117510163D01*
X164510608Y-117597822D01*
X164622178Y-117709392D01*
X164709837Y-117840584D01*
X164709838Y-117840586D01*
X164770219Y-117986358D01*
X164801000Y-118141107D01*
X164801000Y-118298893D01*
X164770219Y-118453642D01*
X164709838Y-118599414D01*
X164709837Y-118599416D01*
X164622178Y-118730608D01*
X164510608Y-118842178D01*
X164379416Y-118929837D01*
X164379415Y-118929838D01*
X164379414Y-118929838D01*
X164233642Y-118990219D01*
X164078893Y-119021000D01*
X163921107Y-119021000D01*
X163766358Y-118990219D01*
X163620586Y-118929838D01*
X163620585Y-118929838D01*
X163620584Y-118929837D01*
X163489392Y-118842178D01*
X163377822Y-118730608D01*
X163290163Y-118599416D01*
X163290162Y-118599414D01*
X163229781Y-118453642D01*
X163199000Y-118298893D01*
X163199000Y-118141107D01*
X163229781Y-117986358D01*
X163290162Y-117840586D01*
X163290163Y-117840584D01*
X163377822Y-117709392D01*
X163489392Y-117597822D01*
X163620584Y-117510163D01*
X163620586Y-117510162D01*
X163766358Y-117449781D01*
X163921107Y-117419000D01*
X164078893Y-117419000D01*
X164233642Y-117449781D01*
X164233642Y-117449781D01*
G37*
G36*
X131233642Y-115419781D02*
G01*
X131371563Y-115476910D01*
X131379416Y-115480163D01*
X131510608Y-115567822D01*
X131622178Y-115679392D01*
X131709837Y-115810584D01*
X131709838Y-115810586D01*
X131770219Y-115956358D01*
X131801000Y-116111107D01*
X131801000Y-116268893D01*
X131770219Y-116423642D01*
X131709838Y-116569414D01*
X131709837Y-116569416D01*
X131622178Y-116700608D01*
X131510608Y-116812178D01*
X131379416Y-116899837D01*
X131379415Y-116899838D01*
X131379414Y-116899838D01*
X131233642Y-116960219D01*
X131078893Y-116991000D01*
X130921107Y-116991000D01*
X130766358Y-116960219D01*
X130620586Y-116899838D01*
X130620585Y-116899838D01*
X130620584Y-116899837D01*
X130489392Y-116812178D01*
X130377822Y-116700608D01*
X130290163Y-116569416D01*
X130290162Y-116569414D01*
X130229781Y-116423642D01*
X130199000Y-116268893D01*
X130199000Y-116111107D01*
X130229781Y-115956358D01*
X130290162Y-115810586D01*
X130290163Y-115810584D01*
X130377822Y-115679392D01*
X130489392Y-115567822D01*
X130620584Y-115480163D01*
X130628437Y-115476910D01*
X130766358Y-115419781D01*
X130921107Y-115389000D01*
X131078893Y-115389000D01*
X131233642Y-115419781D01*
X131233642Y-115419781D01*
G37*
G36*
X164233642Y-115419781D02*
G01*
X164371563Y-115476910D01*
X164379416Y-115480163D01*
X164510608Y-115567822D01*
X164622178Y-115679392D01*
X164709837Y-115810584D01*
X164709838Y-115810586D01*
X164770219Y-115956358D01*
X164801000Y-116111107D01*
X164801000Y-116268893D01*
X164770219Y-116423642D01*
X164709838Y-116569414D01*
X164709837Y-116569416D01*
X164622178Y-116700608D01*
X164510608Y-116812178D01*
X164379416Y-116899837D01*
X164379415Y-116899838D01*
X164379414Y-116899838D01*
X164233642Y-116960219D01*
X164078893Y-116991000D01*
X163921107Y-116991000D01*
X163766358Y-116960219D01*
X163620586Y-116899838D01*
X163620585Y-116899838D01*
X163620584Y-116899837D01*
X163489392Y-116812178D01*
X163377822Y-116700608D01*
X163290163Y-116569416D01*
X163290162Y-116569414D01*
X163229781Y-116423642D01*
X163199000Y-116268893D01*
X163199000Y-116111107D01*
X163229781Y-115956358D01*
X163290162Y-115810586D01*
X163290163Y-115810584D01*
X163377822Y-115679392D01*
X163489392Y-115567822D01*
X163620584Y-115480163D01*
X163628437Y-115476910D01*
X163766358Y-115419781D01*
X163921107Y-115389000D01*
X164078893Y-115389000D01*
X164233642Y-115419781D01*
X164233642Y-115419781D01*
G37*
G36*
X128519890Y-114274017D02*
G01*
X128638364Y-114323091D01*
X128744988Y-114394335D01*
X128835665Y-114485012D01*
X128906909Y-114591636D01*
X128955983Y-114710110D01*
X128981000Y-114835882D01*
X128981000Y-114964118D01*
X128955983Y-115089890D01*
X128906909Y-115208364D01*
X128835665Y-115314988D01*
X128744988Y-115405665D01*
X128638364Y-115476909D01*
X128638363Y-115476910D01*
X128638362Y-115476910D01*
X128519890Y-115525983D01*
X128394119Y-115551000D01*
X128265881Y-115551000D01*
X128140110Y-115525983D01*
X128021638Y-115476910D01*
X128021637Y-115476910D01*
X128021636Y-115476909D01*
X127915012Y-115405665D01*
X127824335Y-115314988D01*
X127753091Y-115208364D01*
X127704017Y-115089890D01*
X127679000Y-114964118D01*
X127679000Y-114835882D01*
X127704017Y-114710110D01*
X127753091Y-114591636D01*
X127824335Y-114485012D01*
X127915012Y-114394335D01*
X128021636Y-114323091D01*
X128140110Y-114274017D01*
X128265881Y-114249000D01*
X128394119Y-114249000D01*
X128519890Y-114274017D01*
X128519890Y-114274017D01*
G37*
G36*
X164233642Y-112879781D02*
G01*
X164379414Y-112940162D01*
X164379416Y-112940163D01*
X164510608Y-113027822D01*
X164622178Y-113139392D01*
X164709837Y-113270584D01*
X164709838Y-113270586D01*
X164770219Y-113416358D01*
X164801000Y-113571107D01*
X164801000Y-113728893D01*
X164770219Y-113883642D01*
X164709838Y-114029414D01*
X164709837Y-114029416D01*
X164622178Y-114160608D01*
X164510608Y-114272178D01*
X164379416Y-114359837D01*
X164379415Y-114359838D01*
X164379414Y-114359838D01*
X164233642Y-114420219D01*
X164078893Y-114451000D01*
X163921107Y-114451000D01*
X163766358Y-114420219D01*
X163620586Y-114359838D01*
X163620585Y-114359838D01*
X163620584Y-114359837D01*
X163489392Y-114272178D01*
X163377822Y-114160608D01*
X163290163Y-114029416D01*
X163290162Y-114029414D01*
X163229781Y-113883642D01*
X163199000Y-113728893D01*
X163199000Y-113571107D01*
X163229781Y-113416358D01*
X163290162Y-113270586D01*
X163290163Y-113270584D01*
X163377822Y-113139392D01*
X163489392Y-113027822D01*
X163620584Y-112940163D01*
X163620586Y-112940162D01*
X163766358Y-112879781D01*
X163921107Y-112849000D01*
X164078893Y-112849000D01*
X164233642Y-112879781D01*
X164233642Y-112879781D01*
G37*
G36*
X131233642Y-112879781D02*
G01*
X131379414Y-112940162D01*
X131379416Y-112940163D01*
X131510608Y-113027822D01*
X131622178Y-113139392D01*
X131709837Y-113270584D01*
X131709838Y-113270586D01*
X131770219Y-113416358D01*
X131801000Y-113571107D01*
X131801000Y-113728893D01*
X131770219Y-113883642D01*
X131709838Y-114029414D01*
X131709837Y-114029416D01*
X131622178Y-114160608D01*
X131510608Y-114272178D01*
X131379416Y-114359837D01*
X131379415Y-114359838D01*
X131379414Y-114359838D01*
X131233642Y-114420219D01*
X131078893Y-114451000D01*
X130921107Y-114451000D01*
X130766358Y-114420219D01*
X130620586Y-114359838D01*
X130620585Y-114359838D01*
X130620584Y-114359837D01*
X130489392Y-114272178D01*
X130377822Y-114160608D01*
X130290163Y-114029416D01*
X130290162Y-114029414D01*
X130229781Y-113883642D01*
X130199000Y-113728893D01*
X130199000Y-113571107D01*
X130229781Y-113416358D01*
X130290162Y-113270586D01*
X130290163Y-113270584D01*
X130377822Y-113139392D01*
X130489392Y-113027822D01*
X130620584Y-112940163D01*
X130620586Y-112940162D01*
X130766358Y-112879781D01*
X130921107Y-112849000D01*
X131078893Y-112849000D01*
X131233642Y-112879781D01*
X131233642Y-112879781D01*
G37*
G36*
X129881000Y-112351000D02*
G01*
X126779000Y-112351000D01*
X126779000Y-110249000D01*
X129881000Y-110249000D01*
X129881000Y-112351000D01*
X129881000Y-112351000D01*
G37*
G36*
X166972585Y-109078802D02*
G01*
X167122410Y-109108604D01*
X167404674Y-109225521D01*
X167658705Y-109395259D01*
X167874741Y-109611295D01*
X168044479Y-109865326D01*
X168161396Y-110147590D01*
X168221000Y-110447240D01*
X168221000Y-110752760D01*
X168161396Y-111052410D01*
X168044479Y-111334674D01*
X167874741Y-111588705D01*
X167658705Y-111804741D01*
X167404674Y-111974479D01*
X167122410Y-112091396D01*
X166972585Y-112121198D01*
X166822761Y-112151000D01*
X166517239Y-112151000D01*
X166367415Y-112121198D01*
X166217590Y-112091396D01*
X165935326Y-111974479D01*
X165681295Y-111804741D01*
X165465259Y-111588705D01*
X165295521Y-111334674D01*
X165178604Y-111052410D01*
X165119000Y-110752760D01*
X165119000Y-110447240D01*
X165178604Y-110147590D01*
X165295521Y-109865326D01*
X165465259Y-109611295D01*
X165681295Y-109395259D01*
X165935326Y-109225521D01*
X166217590Y-109108604D01*
X166367415Y-109078802D01*
X166517239Y-109049000D01*
X166822761Y-109049000D01*
X166972585Y-109078802D01*
X166972585Y-109078802D01*
G37*
M02*
