G04 #@! TF.GenerationSoftware,KiCad,Pcbnew,(5.1.0-11-g23086decc)*
G04 #@! TF.CreationDate,2019-04-24T18:44:19+02:00*
G04 #@! TF.ProjectId,USB-EMI-Filter,5553422d-454d-4492-9d46-696c7465722e,rev?*
G04 #@! TF.SameCoordinates,Original*
G04 #@! TF.FileFunction,Copper,L1,Top*
G04 #@! TF.FilePolarity,Positive*
%FSLAX46Y46*%
G04 Gerber Fmt 4.6, Leading zero omitted, Abs format (unit mm)*
G04 Created by KiCad (PCBNEW (5.1.0-11-g23086decc)) date 2019-04-24 18:44:19*
%MOMM*%
%LPD*%
G04 APERTURE LIST*
%ADD10R,1.700000X1.700000*%
%ADD11O,1.700000X1.700000*%
%ADD12R,1.250000X1.000000*%
%ADD13R,1.100000X0.600000*%
%ADD14C,3.000000*%
%ADD15C,1.500000*%
%ADD16R,3.000000X2.000000*%
%ADD17R,0.800000X0.750000*%
%ADD18R,2.000000X1.200000*%
%ADD19R,0.750000X0.800000*%
%ADD20C,0.200000*%
%ADD21C,0.100000*%
%ADD22C,0.600000*%
%ADD23C,0.400000*%
%ADD24C,0.300000*%
%ADD25C,1.000000*%
%ADD26C,0.600000*%
%ADD27C,0.800000*%
%ADD28C,0.254000*%
G04 APERTURE END LIST*
D10*
X158700000Y-121100000D03*
D11*
X158700000Y-123640000D03*
D12*
X161600000Y-120700000D03*
X161600000Y-122700000D03*
X155800000Y-120700000D03*
X155800000Y-122700000D03*
D13*
X136350000Y-117700000D03*
X133650000Y-117700000D03*
X133650000Y-116700000D03*
X136350000Y-116700000D03*
D14*
X166670000Y-124320000D03*
X166670000Y-110600000D03*
D15*
X164000000Y-120760000D03*
X164000000Y-118220000D03*
X164000000Y-116190000D03*
X164000000Y-113650000D03*
X131000000Y-120760000D03*
X131000000Y-118220000D03*
X131000000Y-116190000D03*
X131000000Y-113650000D03*
D16*
X128330000Y-123000000D03*
X128330000Y-111300000D03*
D17*
X152150000Y-120650000D03*
X150650000Y-120650000D03*
D18*
X136150000Y-120680000D03*
X136150000Y-123220000D03*
X143650000Y-123220000D03*
X143650000Y-120680000D03*
D12*
X153900000Y-120700000D03*
X153900000Y-122700000D03*
D19*
X148800000Y-122150000D03*
X148800000Y-120650000D03*
D20*
X146500000Y-121050000D03*
D21*
G36*
X146100000Y-121250000D02*
G01*
X146100000Y-120950000D01*
X146200000Y-120850000D01*
X146800000Y-120850000D01*
X146900000Y-120950000D01*
X146900000Y-121250000D01*
X146100000Y-121250000D01*
X146100000Y-121250000D01*
G37*
D20*
X146500000Y-120250000D03*
D21*
G36*
X146900000Y-120050001D02*
G01*
X146900000Y-120350000D01*
X146800000Y-120450000D01*
X146200000Y-120449999D01*
X146100000Y-120349999D01*
X146100000Y-120050000D01*
X146900000Y-120050001D01*
X146900000Y-120050001D01*
G37*
D20*
X147300000Y-120650000D03*
D21*
G36*
X147150000Y-120450000D02*
G01*
X147500000Y-120450000D01*
X147500000Y-120850000D01*
X147150000Y-120850000D01*
X147100000Y-120800000D01*
X147100000Y-120500000D01*
X147150000Y-120450000D01*
X147150000Y-120450000D01*
G37*
D20*
X145700000Y-120650000D03*
D21*
G36*
X145850000Y-120850000D02*
G01*
X145500000Y-120850000D01*
X145500000Y-120450000D01*
X145850000Y-120450000D01*
X145900000Y-120500000D01*
X145900000Y-120800000D01*
X145850000Y-120850000D01*
X145850000Y-120850000D01*
G37*
D19*
X133900000Y-122150000D03*
X133900000Y-120650000D03*
D22*
X146500000Y-119650000D03*
X146500000Y-121650000D03*
X145300000Y-123200000D03*
X148800000Y-123100000D03*
X153900000Y-123700000D03*
X155800000Y-123700000D03*
X161600000Y-123700000D03*
X133900000Y-123200000D03*
D23*
X146500000Y-120250000D02*
X146500000Y-119650000D01*
X146500000Y-121050000D02*
X146500000Y-121650000D01*
X146500000Y-120250000D02*
X146500000Y-121050000D01*
D24*
X147000000Y-122150000D02*
X146500000Y-121650000D01*
X148800000Y-122150000D02*
X147000000Y-122150000D01*
X143650000Y-123220000D02*
X145280000Y-123220000D01*
X145280000Y-123220000D02*
X145300000Y-123200000D01*
X148800000Y-122150000D02*
X148800000Y-123100000D01*
D23*
X153900000Y-122700000D02*
X153900000Y-123700000D01*
X155800000Y-122700000D02*
X155800000Y-123700000D01*
D24*
X161600000Y-122700000D02*
X161600000Y-123700000D01*
D25*
X136150000Y-123220000D02*
X133920000Y-123220000D01*
X133920000Y-123220000D02*
X133900000Y-123200000D01*
D26*
X133930000Y-120680000D02*
X133900000Y-120650000D01*
X136150000Y-120680000D02*
X133930000Y-120680000D01*
X131110000Y-120650000D02*
X131000000Y-120760000D01*
X133900000Y-120650000D02*
X131110000Y-120650000D01*
X147300000Y-120650000D02*
X148800000Y-120650000D01*
X148800000Y-120650000D02*
X150650000Y-120650000D01*
X143680000Y-120650000D02*
X143650000Y-120680000D01*
X145700000Y-120650000D02*
X143680000Y-120650000D01*
X152150000Y-120650000D02*
X153900000Y-120650000D01*
X153900000Y-120700000D02*
X155800000Y-120700000D01*
X158300000Y-120700000D02*
X158700000Y-121100000D01*
X155800000Y-120700000D02*
X158300000Y-120700000D01*
X159200000Y-120600000D02*
X158700000Y-121100000D01*
X161600000Y-120600000D02*
X159200000Y-120600000D01*
X163940000Y-120700000D02*
X164000000Y-120760000D01*
X161600000Y-120700000D02*
X163940000Y-120700000D01*
D27*
X131510000Y-116700000D02*
X131000000Y-116190000D01*
X133650000Y-116700000D02*
X131510000Y-116700000D01*
X131520000Y-117700000D02*
X131000000Y-118220000D01*
X133650000Y-117700000D02*
X131520000Y-117700000D01*
X164000000Y-116190000D02*
X163485000Y-116705000D01*
X163485000Y-116705000D02*
X159812108Y-116705000D01*
X136350000Y-116700000D02*
X159807108Y-116700000D01*
X159807108Y-116700000D02*
X159812108Y-116705000D01*
X164000000Y-118220000D02*
X163485000Y-117705000D01*
X163485000Y-117705000D02*
X159397892Y-117705000D01*
X159392892Y-117700000D02*
X159397892Y-117705000D01*
X136350000Y-117700000D02*
X159392892Y-117700000D01*
D28*
G36*
X176340001Y-125840000D02*
G01*
X144727000Y-125840000D01*
X144727000Y-122627951D01*
X145850255Y-121807111D01*
X153268490Y-121837431D01*
X153275000Y-121838072D01*
X153425367Y-121838072D01*
X157211928Y-121853548D01*
X157211928Y-121950000D01*
X157224188Y-122074482D01*
X157260498Y-122194180D01*
X157319463Y-122304494D01*
X157398815Y-122401185D01*
X157495506Y-122480537D01*
X157605820Y-122539502D01*
X157725518Y-122575812D01*
X157850000Y-122588072D01*
X159550000Y-122588072D01*
X159674482Y-122575812D01*
X159794180Y-122539502D01*
X159904494Y-122480537D01*
X160001185Y-122401185D01*
X160080537Y-122304494D01*
X160139502Y-122194180D01*
X160175812Y-122074482D01*
X160188072Y-121950000D01*
X160188072Y-121865713D01*
X162949481Y-121876999D01*
X162974267Y-121874660D01*
X162998121Y-121867530D01*
X163020125Y-121855884D01*
X163039435Y-121840169D01*
X163055307Y-121820988D01*
X163067133Y-121799080D01*
X163070254Y-121788939D01*
X163117114Y-121835799D01*
X163343957Y-121987371D01*
X163596011Y-122091775D01*
X163863589Y-122145000D01*
X164136411Y-122145000D01*
X164403989Y-122091775D01*
X164656043Y-121987371D01*
X164882886Y-121835799D01*
X165075799Y-121642886D01*
X165227371Y-121416043D01*
X165331775Y-121163989D01*
X165385000Y-120896411D01*
X165385000Y-120623589D01*
X165331775Y-120356011D01*
X165327000Y-120344483D01*
X165327000Y-118635517D01*
X165331775Y-118623989D01*
X165385000Y-118356411D01*
X165385000Y-118083589D01*
X165331775Y-117816011D01*
X165327000Y-117804483D01*
X165327000Y-116605517D01*
X165331775Y-116593989D01*
X165385000Y-116326411D01*
X165385000Y-116053589D01*
X165331775Y-115786011D01*
X165327000Y-115774483D01*
X165327000Y-114750000D01*
X165324560Y-114725224D01*
X165317333Y-114701399D01*
X165305597Y-114679443D01*
X165289803Y-114660197D01*
X165270557Y-114644403D01*
X165248601Y-114632667D01*
X165224776Y-114625440D01*
X165200000Y-114623000D01*
X163077000Y-114623000D01*
X163077000Y-109160000D01*
X176340000Y-109160000D01*
X176340001Y-125840000D01*
X176340001Y-125840000D01*
G37*
X176340001Y-125840000D02*
X144727000Y-125840000D01*
X144727000Y-122627951D01*
X145850255Y-121807111D01*
X153268490Y-121837431D01*
X153275000Y-121838072D01*
X153425367Y-121838072D01*
X157211928Y-121853548D01*
X157211928Y-121950000D01*
X157224188Y-122074482D01*
X157260498Y-122194180D01*
X157319463Y-122304494D01*
X157398815Y-122401185D01*
X157495506Y-122480537D01*
X157605820Y-122539502D01*
X157725518Y-122575812D01*
X157850000Y-122588072D01*
X159550000Y-122588072D01*
X159674482Y-122575812D01*
X159794180Y-122539502D01*
X159904494Y-122480537D01*
X160001185Y-122401185D01*
X160080537Y-122304494D01*
X160139502Y-122194180D01*
X160175812Y-122074482D01*
X160188072Y-121950000D01*
X160188072Y-121865713D01*
X162949481Y-121876999D01*
X162974267Y-121874660D01*
X162998121Y-121867530D01*
X163020125Y-121855884D01*
X163039435Y-121840169D01*
X163055307Y-121820988D01*
X163067133Y-121799080D01*
X163070254Y-121788939D01*
X163117114Y-121835799D01*
X163343957Y-121987371D01*
X163596011Y-122091775D01*
X163863589Y-122145000D01*
X164136411Y-122145000D01*
X164403989Y-122091775D01*
X164656043Y-121987371D01*
X164882886Y-121835799D01*
X165075799Y-121642886D01*
X165227371Y-121416043D01*
X165331775Y-121163989D01*
X165385000Y-120896411D01*
X165385000Y-120623589D01*
X165331775Y-120356011D01*
X165327000Y-120344483D01*
X165327000Y-118635517D01*
X165331775Y-118623989D01*
X165385000Y-118356411D01*
X165385000Y-118083589D01*
X165331775Y-117816011D01*
X165327000Y-117804483D01*
X165327000Y-116605517D01*
X165331775Y-116593989D01*
X165385000Y-116326411D01*
X165385000Y-116053589D01*
X165331775Y-115786011D01*
X165327000Y-115774483D01*
X165327000Y-114750000D01*
X165324560Y-114725224D01*
X165317333Y-114701399D01*
X165305597Y-114679443D01*
X165289803Y-114660197D01*
X165270557Y-114644403D01*
X165248601Y-114632667D01*
X165224776Y-114625440D01*
X165200000Y-114623000D01*
X163077000Y-114623000D01*
X163077000Y-109160000D01*
X176340000Y-109160000D01*
X176340001Y-125840000D01*
G36*
X131873000Y-115107595D02*
G01*
X131656043Y-114962629D01*
X131403989Y-114858225D01*
X131136411Y-114805000D01*
X130863589Y-114805000D01*
X130596011Y-114858225D01*
X130343957Y-114962629D01*
X130117114Y-115114201D01*
X129924201Y-115307114D01*
X129772629Y-115533957D01*
X129668225Y-115786011D01*
X129615000Y-116053589D01*
X129615000Y-116326411D01*
X129668225Y-116593989D01*
X129772629Y-116846043D01*
X129924201Y-117072886D01*
X130056315Y-117205000D01*
X129924201Y-117337114D01*
X129772629Y-117563957D01*
X129668225Y-117816011D01*
X129615000Y-118083589D01*
X129615000Y-118356411D01*
X129668225Y-118623989D01*
X129772629Y-118876043D01*
X129924201Y-119102886D01*
X130117114Y-119295799D01*
X130343957Y-119447371D01*
X130446873Y-119490000D01*
X130343957Y-119532629D01*
X130117114Y-119684201D01*
X129924201Y-119877114D01*
X129772629Y-120103957D01*
X129668225Y-120356011D01*
X129615000Y-120623589D01*
X129615000Y-120896411D01*
X129668225Y-121163989D01*
X129772629Y-121416043D01*
X129924201Y-121642886D01*
X130117114Y-121835799D01*
X130343957Y-121987371D01*
X130596011Y-122091775D01*
X130863589Y-122145000D01*
X131136411Y-122145000D01*
X131403989Y-122091775D01*
X131656043Y-121987371D01*
X131882886Y-121835799D01*
X131907351Y-121811334D01*
X131910197Y-121814803D01*
X131929443Y-121830597D01*
X131951399Y-121842333D01*
X131975224Y-121849560D01*
X132000000Y-121852000D01*
X134373000Y-121852000D01*
X134373000Y-125840000D01*
X126660000Y-125840000D01*
X126660000Y-119378363D01*
X127095000Y-119378363D01*
X127095000Y-119621637D01*
X127142460Y-119860236D01*
X127235557Y-120084992D01*
X127370713Y-120287267D01*
X127542733Y-120459287D01*
X127745008Y-120594443D01*
X127969764Y-120687540D01*
X128208363Y-120735000D01*
X128451637Y-120735000D01*
X128690236Y-120687540D01*
X128914992Y-120594443D01*
X129117267Y-120459287D01*
X129289287Y-120287267D01*
X129424443Y-120084992D01*
X129517540Y-119860236D01*
X129565000Y-119621637D01*
X129565000Y-119378363D01*
X129517540Y-119139764D01*
X129424443Y-118915008D01*
X129289287Y-118712733D01*
X129117267Y-118540713D01*
X128914992Y-118405557D01*
X128690236Y-118312460D01*
X128451637Y-118265000D01*
X128208363Y-118265000D01*
X127969764Y-118312460D01*
X127745008Y-118405557D01*
X127542733Y-118540713D01*
X127370713Y-118712733D01*
X127235557Y-118915008D01*
X127142460Y-119139764D01*
X127095000Y-119378363D01*
X126660000Y-119378363D01*
X126660000Y-114778363D01*
X127095000Y-114778363D01*
X127095000Y-115021637D01*
X127142460Y-115260236D01*
X127235557Y-115484992D01*
X127370713Y-115687267D01*
X127542733Y-115859287D01*
X127745008Y-115994443D01*
X127969764Y-116087540D01*
X128208363Y-116135000D01*
X128451637Y-116135000D01*
X128690236Y-116087540D01*
X128914992Y-115994443D01*
X129117267Y-115859287D01*
X129289287Y-115687267D01*
X129424443Y-115484992D01*
X129517540Y-115260236D01*
X129565000Y-115021637D01*
X129565000Y-114778363D01*
X129517540Y-114539764D01*
X129424443Y-114315008D01*
X129289287Y-114112733D01*
X129117267Y-113940713D01*
X128914992Y-113805557D01*
X128690236Y-113712460D01*
X128451637Y-113665000D01*
X128208363Y-113665000D01*
X127969764Y-113712460D01*
X127745008Y-113805557D01*
X127542733Y-113940713D01*
X127370713Y-114112733D01*
X127235557Y-114315008D01*
X127142460Y-114539764D01*
X127095000Y-114778363D01*
X126660000Y-114778363D01*
X126660000Y-109160000D01*
X131873000Y-109160000D01*
X131873000Y-115107595D01*
X131873000Y-115107595D01*
G37*
X131873000Y-115107595D02*
X131656043Y-114962629D01*
X131403989Y-114858225D01*
X131136411Y-114805000D01*
X130863589Y-114805000D01*
X130596011Y-114858225D01*
X130343957Y-114962629D01*
X130117114Y-115114201D01*
X129924201Y-115307114D01*
X129772629Y-115533957D01*
X129668225Y-115786011D01*
X129615000Y-116053589D01*
X129615000Y-116326411D01*
X129668225Y-116593989D01*
X129772629Y-116846043D01*
X129924201Y-117072886D01*
X130056315Y-117205000D01*
X129924201Y-117337114D01*
X129772629Y-117563957D01*
X129668225Y-117816011D01*
X129615000Y-118083589D01*
X129615000Y-118356411D01*
X129668225Y-118623989D01*
X129772629Y-118876043D01*
X129924201Y-119102886D01*
X130117114Y-119295799D01*
X130343957Y-119447371D01*
X130446873Y-119490000D01*
X130343957Y-119532629D01*
X130117114Y-119684201D01*
X129924201Y-119877114D01*
X129772629Y-120103957D01*
X129668225Y-120356011D01*
X129615000Y-120623589D01*
X129615000Y-120896411D01*
X129668225Y-121163989D01*
X129772629Y-121416043D01*
X129924201Y-121642886D01*
X130117114Y-121835799D01*
X130343957Y-121987371D01*
X130596011Y-122091775D01*
X130863589Y-122145000D01*
X131136411Y-122145000D01*
X131403989Y-122091775D01*
X131656043Y-121987371D01*
X131882886Y-121835799D01*
X131907351Y-121811334D01*
X131910197Y-121814803D01*
X131929443Y-121830597D01*
X131951399Y-121842333D01*
X131975224Y-121849560D01*
X132000000Y-121852000D01*
X134373000Y-121852000D01*
X134373000Y-125840000D01*
X126660000Y-125840000D01*
X126660000Y-119378363D01*
X127095000Y-119378363D01*
X127095000Y-119621637D01*
X127142460Y-119860236D01*
X127235557Y-120084992D01*
X127370713Y-120287267D01*
X127542733Y-120459287D01*
X127745008Y-120594443D01*
X127969764Y-120687540D01*
X128208363Y-120735000D01*
X128451637Y-120735000D01*
X128690236Y-120687540D01*
X128914992Y-120594443D01*
X129117267Y-120459287D01*
X129289287Y-120287267D01*
X129424443Y-120084992D01*
X129517540Y-119860236D01*
X129565000Y-119621637D01*
X129565000Y-119378363D01*
X129517540Y-119139764D01*
X129424443Y-118915008D01*
X129289287Y-118712733D01*
X129117267Y-118540713D01*
X128914992Y-118405557D01*
X128690236Y-118312460D01*
X128451637Y-118265000D01*
X128208363Y-118265000D01*
X127969764Y-118312460D01*
X127745008Y-118405557D01*
X127542733Y-118540713D01*
X127370713Y-118712733D01*
X127235557Y-118915008D01*
X127142460Y-119139764D01*
X127095000Y-119378363D01*
X126660000Y-119378363D01*
X126660000Y-114778363D01*
X127095000Y-114778363D01*
X127095000Y-115021637D01*
X127142460Y-115260236D01*
X127235557Y-115484992D01*
X127370713Y-115687267D01*
X127542733Y-115859287D01*
X127745008Y-115994443D01*
X127969764Y-116087540D01*
X128208363Y-116135000D01*
X128451637Y-116135000D01*
X128690236Y-116087540D01*
X128914992Y-115994443D01*
X129117267Y-115859287D01*
X129289287Y-115687267D01*
X129424443Y-115484992D01*
X129517540Y-115260236D01*
X129565000Y-115021637D01*
X129565000Y-114778363D01*
X129517540Y-114539764D01*
X129424443Y-114315008D01*
X129289287Y-114112733D01*
X129117267Y-113940713D01*
X128914992Y-113805557D01*
X128690236Y-113712460D01*
X128451637Y-113665000D01*
X128208363Y-113665000D01*
X127969764Y-113712460D01*
X127745008Y-113805557D01*
X127542733Y-113940713D01*
X127370713Y-114112733D01*
X127235557Y-114315008D01*
X127142460Y-114539764D01*
X127095000Y-114778363D01*
X126660000Y-114778363D01*
X126660000Y-109160000D01*
X131873000Y-109160000D01*
X131873000Y-115107595D01*
M02*
