M48
; DRILL file {KiCad (5.1.0-11-g23086decc)} date 24-Apr-19 18:44:24
; FORMAT={-:-/ absolute / inch / decimal}
; #@! TF.CreationDate,2019-04-24T18:44:24+02:00
; #@! TF.GenerationSoftware,Kicad,Pcbnew,(5.1.0-11-g23086decc)
; #@! TF.FileFunction,Plated,1,2,PTH
FMAT,2
INCH
T1C0.0118
T2C0.0394
T3C0.0906
%
G90
G05
T1
X5.2717Y-4.8504
X5.7205Y-4.8504
X5.7677Y-4.7106
X5.7677Y-4.7894
X5.8583Y-4.8465
X6.0591Y-4.8701
X6.1339Y-4.8701
X6.3622Y-4.8701
T2
X6.4567Y-4.4744
X6.4567Y-4.5744
X6.4567Y-4.6543
X6.4567Y-4.7543
X5.1575Y-4.4744
X5.1575Y-4.5744
X5.1575Y-4.6543
X5.1575Y-4.7543
X6.248Y-4.7677
X6.248Y-4.8677
T3
X6.5618Y-4.3543
X6.5618Y-4.8945
T2
G00X5.0819Y-4.3819
M15
G01X5.0228Y-4.3819
M16
G05
G00X5.0819Y-4.8425
M15
G01X5.0228Y-4.8425
M16
G05
T0
M30
