G04 #@! TF.GenerationSoftware,KiCad,Pcbnew,(5.1.0-11-g23086decc)*
G04 #@! TF.CreationDate,2019-04-24T18:44:19+02:00*
G04 #@! TF.ProjectId,USB-EMI-Filter,5553422d-454d-4492-9d46-696c7465722e,rev?*
G04 #@! TF.SameCoordinates,Original*
G04 #@! TF.FileFunction,Copper,L2,Bot*
G04 #@! TF.FilePolarity,Positive*
%FSLAX46Y46*%
G04 Gerber Fmt 4.6, Leading zero omitted, Abs format (unit mm)*
G04 Created by KiCad (PCBNEW (5.1.0-11-g23086decc)) date 2019-04-24 18:44:19*
%MOMM*%
%LPD*%
G04 APERTURE LIST*
%ADD10R,1.700000X1.700000*%
%ADD11O,1.700000X1.700000*%
%ADD12C,3.000000*%
%ADD13C,1.500000*%
%ADD14R,3.000000X2.000000*%
%ADD15C,0.600000*%
%ADD16C,0.254000*%
G04 APERTURE END LIST*
D10*
X158700000Y-121100000D03*
D11*
X158700000Y-123640000D03*
D12*
X166670000Y-124320000D03*
X166670000Y-110600000D03*
D13*
X164000000Y-120760000D03*
X164000000Y-118220000D03*
X164000000Y-116190000D03*
X164000000Y-113650000D03*
X131000000Y-120760000D03*
X131000000Y-118220000D03*
X131000000Y-116190000D03*
X131000000Y-113650000D03*
D14*
X128330000Y-123000000D03*
X128330000Y-111300000D03*
D15*
X146500000Y-119650000D03*
X146500000Y-121650000D03*
X145300000Y-123200000D03*
X148800000Y-123100000D03*
X153900000Y-123700000D03*
X155800000Y-123700000D03*
X161600000Y-123700000D03*
X133900000Y-123200000D03*
D16*
G36*
X165357952Y-109108347D02*
G01*
X166670000Y-110420395D01*
X167982048Y-109108347D01*
X167954191Y-109052000D01*
X176448000Y-109052000D01*
X176448001Y-125948000D01*
X167914639Y-125948000D01*
X167982048Y-125811653D01*
X166670000Y-124499605D01*
X165357952Y-125811653D01*
X165425361Y-125948000D01*
X144677000Y-125948000D01*
X144677000Y-123996890D01*
X157258524Y-123996890D01*
X157303175Y-124144099D01*
X157428359Y-124406920D01*
X157602412Y-124640269D01*
X157818645Y-124835178D01*
X158068748Y-124984157D01*
X158343109Y-125081481D01*
X158573000Y-124960814D01*
X158573000Y-123767000D01*
X158827000Y-123767000D01*
X158827000Y-124960814D01*
X159056891Y-125081481D01*
X159331252Y-124984157D01*
X159581355Y-124835178D01*
X159797588Y-124640269D01*
X159971641Y-124406920D01*
X159992644Y-124362824D01*
X164525098Y-124362824D01*
X164574666Y-124780451D01*
X164704757Y-125180383D01*
X164862786Y-125476038D01*
X165178347Y-125632048D01*
X166490395Y-124320000D01*
X166849605Y-124320000D01*
X168161653Y-125632048D01*
X168477214Y-125476038D01*
X168668020Y-125101255D01*
X168782044Y-124696449D01*
X168814902Y-124277176D01*
X168765334Y-123859549D01*
X168635243Y-123459617D01*
X168477214Y-123163962D01*
X168161653Y-123007952D01*
X166849605Y-124320000D01*
X166490395Y-124320000D01*
X165178347Y-123007952D01*
X164862786Y-123163962D01*
X164671980Y-123538745D01*
X164557956Y-123943551D01*
X164525098Y-124362824D01*
X159992644Y-124362824D01*
X160096825Y-124144099D01*
X160141476Y-123996890D01*
X160020155Y-123767000D01*
X158827000Y-123767000D01*
X158573000Y-123767000D01*
X157379845Y-123767000D01*
X157258524Y-123996890D01*
X144677000Y-123996890D01*
X144677000Y-123283110D01*
X157258524Y-123283110D01*
X157379845Y-123513000D01*
X158573000Y-123513000D01*
X158573000Y-123493000D01*
X158827000Y-123493000D01*
X158827000Y-123513000D01*
X160020155Y-123513000D01*
X160141476Y-123283110D01*
X160096825Y-123135901D01*
X159971641Y-122873080D01*
X159938276Y-122828347D01*
X165357952Y-122828347D01*
X166670000Y-124140395D01*
X167982048Y-122828347D01*
X167826038Y-122512786D01*
X167451255Y-122321980D01*
X167046449Y-122207956D01*
X166627176Y-122175098D01*
X166209549Y-122224666D01*
X165809617Y-122354757D01*
X165513962Y-122512786D01*
X165357952Y-122828347D01*
X159938276Y-122828347D01*
X159797588Y-122639731D01*
X159612998Y-122473344D01*
X159653310Y-122469374D01*
X159752650Y-122439239D01*
X159844202Y-122390304D01*
X159924448Y-122324448D01*
X159990304Y-122244202D01*
X160039239Y-122152650D01*
X160069374Y-122053310D01*
X160079549Y-121950000D01*
X160079549Y-120250000D01*
X160069374Y-120146690D01*
X160039239Y-120047350D01*
X159990304Y-119955798D01*
X159924448Y-119875552D01*
X159844202Y-119809696D01*
X159752650Y-119760761D01*
X159653310Y-119730626D01*
X159550000Y-119720451D01*
X157850000Y-119720451D01*
X157746690Y-119730626D01*
X157647350Y-119760761D01*
X157555798Y-119809696D01*
X157475552Y-119875552D01*
X157409696Y-119955798D01*
X157360761Y-120047350D01*
X157330626Y-120146690D01*
X157320451Y-120250000D01*
X157320451Y-121950000D01*
X157330626Y-122053310D01*
X157360761Y-122152650D01*
X157409696Y-122244202D01*
X157475552Y-122324448D01*
X157555798Y-122390304D01*
X157647350Y-122439239D01*
X157746690Y-122469374D01*
X157787002Y-122473344D01*
X157602412Y-122639731D01*
X157428359Y-122873080D01*
X157303175Y-123135901D01*
X157258524Y-123283110D01*
X144677000Y-123283110D01*
X144677000Y-118900000D01*
X144674560Y-118875224D01*
X144667333Y-118851399D01*
X144655597Y-118829443D01*
X144639803Y-118810197D01*
X144620557Y-118794403D01*
X144598601Y-118782667D01*
X144574776Y-118775440D01*
X144550000Y-118773000D01*
X135627000Y-118773000D01*
X135627000Y-116064226D01*
X162723000Y-116064226D01*
X162723000Y-116315774D01*
X162772074Y-116562487D01*
X162868337Y-116794886D01*
X163008089Y-117004040D01*
X163185960Y-117181911D01*
X163220515Y-117205000D01*
X163185960Y-117228089D01*
X163008089Y-117405960D01*
X162868337Y-117615114D01*
X162772074Y-117847513D01*
X162723000Y-118094226D01*
X162723000Y-118345774D01*
X162772074Y-118592487D01*
X162868337Y-118824886D01*
X163008089Y-119034040D01*
X163185960Y-119211911D01*
X163395114Y-119351663D01*
X163627513Y-119447926D01*
X163839034Y-119490000D01*
X163627513Y-119532074D01*
X163395114Y-119628337D01*
X163185960Y-119768089D01*
X163008089Y-119945960D01*
X162868337Y-120155114D01*
X162772074Y-120387513D01*
X162723000Y-120634226D01*
X162723000Y-120885774D01*
X162772074Y-121132487D01*
X162868337Y-121364886D01*
X163008089Y-121574040D01*
X163185960Y-121751911D01*
X163395114Y-121891663D01*
X163627513Y-121987926D01*
X163874226Y-122037000D01*
X164125774Y-122037000D01*
X164372487Y-121987926D01*
X164604886Y-121891663D01*
X164814040Y-121751911D01*
X164991911Y-121574040D01*
X165131663Y-121364886D01*
X165227926Y-121132487D01*
X165277000Y-120885774D01*
X165277000Y-120634226D01*
X165227926Y-120387513D01*
X165131663Y-120155114D01*
X164991911Y-119945960D01*
X164814040Y-119768089D01*
X164604886Y-119628337D01*
X164372487Y-119532074D01*
X164160966Y-119490000D01*
X164372487Y-119447926D01*
X164604886Y-119351663D01*
X164814040Y-119211911D01*
X164991911Y-119034040D01*
X165131663Y-118824886D01*
X165227926Y-118592487D01*
X165277000Y-118345774D01*
X165277000Y-118094226D01*
X165227926Y-117847513D01*
X165131663Y-117615114D01*
X164991911Y-117405960D01*
X164814040Y-117228089D01*
X164779485Y-117205000D01*
X164814040Y-117181911D01*
X164991911Y-117004040D01*
X165131663Y-116794886D01*
X165227926Y-116562487D01*
X165277000Y-116315774D01*
X165277000Y-116064226D01*
X165227926Y-115817513D01*
X165131663Y-115585114D01*
X164991911Y-115375960D01*
X164814040Y-115198089D01*
X164604886Y-115058337D01*
X164405970Y-114975943D01*
X164598832Y-114906277D01*
X164711863Y-114845860D01*
X164777388Y-114606993D01*
X164000000Y-113829605D01*
X163222612Y-114606993D01*
X163288137Y-114845860D01*
X163535116Y-114961760D01*
X163593448Y-114976184D01*
X163395114Y-115058337D01*
X163185960Y-115198089D01*
X163008089Y-115375960D01*
X162868337Y-115585114D01*
X162772074Y-115817513D01*
X162723000Y-116064226D01*
X135627000Y-116064226D01*
X135627000Y-113722492D01*
X162610188Y-113722492D01*
X162651035Y-113992238D01*
X162743723Y-114248832D01*
X162804140Y-114361863D01*
X163043007Y-114427388D01*
X163820395Y-113650000D01*
X164179605Y-113650000D01*
X164956993Y-114427388D01*
X165195860Y-114361863D01*
X165311760Y-114114884D01*
X165377250Y-113850040D01*
X165389812Y-113577508D01*
X165348965Y-113307762D01*
X165256277Y-113051168D01*
X165195860Y-112938137D01*
X164956993Y-112872612D01*
X164179605Y-113650000D01*
X163820395Y-113650000D01*
X163043007Y-112872612D01*
X162804140Y-112938137D01*
X162688240Y-113185116D01*
X162622750Y-113449960D01*
X162610188Y-113722492D01*
X135627000Y-113722492D01*
X135627000Y-112693007D01*
X163222612Y-112693007D01*
X164000000Y-113470395D01*
X164777388Y-112693007D01*
X164711863Y-112454140D01*
X164464884Y-112338240D01*
X164200040Y-112272750D01*
X163927508Y-112260188D01*
X163657762Y-112301035D01*
X163401168Y-112393723D01*
X163288137Y-112454140D01*
X163222612Y-112693007D01*
X135627000Y-112693007D01*
X135627000Y-112091653D01*
X165357952Y-112091653D01*
X165513962Y-112407214D01*
X165888745Y-112598020D01*
X166293551Y-112712044D01*
X166712824Y-112744902D01*
X167130451Y-112695334D01*
X167530383Y-112565243D01*
X167826038Y-112407214D01*
X167982048Y-112091653D01*
X166670000Y-110779605D01*
X165357952Y-112091653D01*
X135627000Y-112091653D01*
X135627000Y-110642824D01*
X164525098Y-110642824D01*
X164574666Y-111060451D01*
X164704757Y-111460383D01*
X164862786Y-111756038D01*
X165178347Y-111912048D01*
X166490395Y-110600000D01*
X166849605Y-110600000D01*
X168161653Y-111912048D01*
X168477214Y-111756038D01*
X168668020Y-111381255D01*
X168782044Y-110976449D01*
X168814902Y-110557176D01*
X168765334Y-110139549D01*
X168635243Y-109739617D01*
X168477214Y-109443962D01*
X168161653Y-109287952D01*
X166849605Y-110600000D01*
X166490395Y-110600000D01*
X165178347Y-109287952D01*
X164862786Y-109443962D01*
X164671980Y-109818745D01*
X164557956Y-110223551D01*
X164525098Y-110642824D01*
X135627000Y-110642824D01*
X135627000Y-109052000D01*
X165385809Y-109052000D01*
X165357952Y-109108347D01*
X165357952Y-109108347D01*
G37*
X165357952Y-109108347D02*
X166670000Y-110420395D01*
X167982048Y-109108347D01*
X167954191Y-109052000D01*
X176448000Y-109052000D01*
X176448001Y-125948000D01*
X167914639Y-125948000D01*
X167982048Y-125811653D01*
X166670000Y-124499605D01*
X165357952Y-125811653D01*
X165425361Y-125948000D01*
X144677000Y-125948000D01*
X144677000Y-123996890D01*
X157258524Y-123996890D01*
X157303175Y-124144099D01*
X157428359Y-124406920D01*
X157602412Y-124640269D01*
X157818645Y-124835178D01*
X158068748Y-124984157D01*
X158343109Y-125081481D01*
X158573000Y-124960814D01*
X158573000Y-123767000D01*
X158827000Y-123767000D01*
X158827000Y-124960814D01*
X159056891Y-125081481D01*
X159331252Y-124984157D01*
X159581355Y-124835178D01*
X159797588Y-124640269D01*
X159971641Y-124406920D01*
X159992644Y-124362824D01*
X164525098Y-124362824D01*
X164574666Y-124780451D01*
X164704757Y-125180383D01*
X164862786Y-125476038D01*
X165178347Y-125632048D01*
X166490395Y-124320000D01*
X166849605Y-124320000D01*
X168161653Y-125632048D01*
X168477214Y-125476038D01*
X168668020Y-125101255D01*
X168782044Y-124696449D01*
X168814902Y-124277176D01*
X168765334Y-123859549D01*
X168635243Y-123459617D01*
X168477214Y-123163962D01*
X168161653Y-123007952D01*
X166849605Y-124320000D01*
X166490395Y-124320000D01*
X165178347Y-123007952D01*
X164862786Y-123163962D01*
X164671980Y-123538745D01*
X164557956Y-123943551D01*
X164525098Y-124362824D01*
X159992644Y-124362824D01*
X160096825Y-124144099D01*
X160141476Y-123996890D01*
X160020155Y-123767000D01*
X158827000Y-123767000D01*
X158573000Y-123767000D01*
X157379845Y-123767000D01*
X157258524Y-123996890D01*
X144677000Y-123996890D01*
X144677000Y-123283110D01*
X157258524Y-123283110D01*
X157379845Y-123513000D01*
X158573000Y-123513000D01*
X158573000Y-123493000D01*
X158827000Y-123493000D01*
X158827000Y-123513000D01*
X160020155Y-123513000D01*
X160141476Y-123283110D01*
X160096825Y-123135901D01*
X159971641Y-122873080D01*
X159938276Y-122828347D01*
X165357952Y-122828347D01*
X166670000Y-124140395D01*
X167982048Y-122828347D01*
X167826038Y-122512786D01*
X167451255Y-122321980D01*
X167046449Y-122207956D01*
X166627176Y-122175098D01*
X166209549Y-122224666D01*
X165809617Y-122354757D01*
X165513962Y-122512786D01*
X165357952Y-122828347D01*
X159938276Y-122828347D01*
X159797588Y-122639731D01*
X159612998Y-122473344D01*
X159653310Y-122469374D01*
X159752650Y-122439239D01*
X159844202Y-122390304D01*
X159924448Y-122324448D01*
X159990304Y-122244202D01*
X160039239Y-122152650D01*
X160069374Y-122053310D01*
X160079549Y-121950000D01*
X160079549Y-120250000D01*
X160069374Y-120146690D01*
X160039239Y-120047350D01*
X159990304Y-119955798D01*
X159924448Y-119875552D01*
X159844202Y-119809696D01*
X159752650Y-119760761D01*
X159653310Y-119730626D01*
X159550000Y-119720451D01*
X157850000Y-119720451D01*
X157746690Y-119730626D01*
X157647350Y-119760761D01*
X157555798Y-119809696D01*
X157475552Y-119875552D01*
X157409696Y-119955798D01*
X157360761Y-120047350D01*
X157330626Y-120146690D01*
X157320451Y-120250000D01*
X157320451Y-121950000D01*
X157330626Y-122053310D01*
X157360761Y-122152650D01*
X157409696Y-122244202D01*
X157475552Y-122324448D01*
X157555798Y-122390304D01*
X157647350Y-122439239D01*
X157746690Y-122469374D01*
X157787002Y-122473344D01*
X157602412Y-122639731D01*
X157428359Y-122873080D01*
X157303175Y-123135901D01*
X157258524Y-123283110D01*
X144677000Y-123283110D01*
X144677000Y-118900000D01*
X144674560Y-118875224D01*
X144667333Y-118851399D01*
X144655597Y-118829443D01*
X144639803Y-118810197D01*
X144620557Y-118794403D01*
X144598601Y-118782667D01*
X144574776Y-118775440D01*
X144550000Y-118773000D01*
X135627000Y-118773000D01*
X135627000Y-116064226D01*
X162723000Y-116064226D01*
X162723000Y-116315774D01*
X162772074Y-116562487D01*
X162868337Y-116794886D01*
X163008089Y-117004040D01*
X163185960Y-117181911D01*
X163220515Y-117205000D01*
X163185960Y-117228089D01*
X163008089Y-117405960D01*
X162868337Y-117615114D01*
X162772074Y-117847513D01*
X162723000Y-118094226D01*
X162723000Y-118345774D01*
X162772074Y-118592487D01*
X162868337Y-118824886D01*
X163008089Y-119034040D01*
X163185960Y-119211911D01*
X163395114Y-119351663D01*
X163627513Y-119447926D01*
X163839034Y-119490000D01*
X163627513Y-119532074D01*
X163395114Y-119628337D01*
X163185960Y-119768089D01*
X163008089Y-119945960D01*
X162868337Y-120155114D01*
X162772074Y-120387513D01*
X162723000Y-120634226D01*
X162723000Y-120885774D01*
X162772074Y-121132487D01*
X162868337Y-121364886D01*
X163008089Y-121574040D01*
X163185960Y-121751911D01*
X163395114Y-121891663D01*
X163627513Y-121987926D01*
X163874226Y-122037000D01*
X164125774Y-122037000D01*
X164372487Y-121987926D01*
X164604886Y-121891663D01*
X164814040Y-121751911D01*
X164991911Y-121574040D01*
X165131663Y-121364886D01*
X165227926Y-121132487D01*
X165277000Y-120885774D01*
X165277000Y-120634226D01*
X165227926Y-120387513D01*
X165131663Y-120155114D01*
X164991911Y-119945960D01*
X164814040Y-119768089D01*
X164604886Y-119628337D01*
X164372487Y-119532074D01*
X164160966Y-119490000D01*
X164372487Y-119447926D01*
X164604886Y-119351663D01*
X164814040Y-119211911D01*
X164991911Y-119034040D01*
X165131663Y-118824886D01*
X165227926Y-118592487D01*
X165277000Y-118345774D01*
X165277000Y-118094226D01*
X165227926Y-117847513D01*
X165131663Y-117615114D01*
X164991911Y-117405960D01*
X164814040Y-117228089D01*
X164779485Y-117205000D01*
X164814040Y-117181911D01*
X164991911Y-117004040D01*
X165131663Y-116794886D01*
X165227926Y-116562487D01*
X165277000Y-116315774D01*
X165277000Y-116064226D01*
X165227926Y-115817513D01*
X165131663Y-115585114D01*
X164991911Y-115375960D01*
X164814040Y-115198089D01*
X164604886Y-115058337D01*
X164405970Y-114975943D01*
X164598832Y-114906277D01*
X164711863Y-114845860D01*
X164777388Y-114606993D01*
X164000000Y-113829605D01*
X163222612Y-114606993D01*
X163288137Y-114845860D01*
X163535116Y-114961760D01*
X163593448Y-114976184D01*
X163395114Y-115058337D01*
X163185960Y-115198089D01*
X163008089Y-115375960D01*
X162868337Y-115585114D01*
X162772074Y-115817513D01*
X162723000Y-116064226D01*
X135627000Y-116064226D01*
X135627000Y-113722492D01*
X162610188Y-113722492D01*
X162651035Y-113992238D01*
X162743723Y-114248832D01*
X162804140Y-114361863D01*
X163043007Y-114427388D01*
X163820395Y-113650000D01*
X164179605Y-113650000D01*
X164956993Y-114427388D01*
X165195860Y-114361863D01*
X165311760Y-114114884D01*
X165377250Y-113850040D01*
X165389812Y-113577508D01*
X165348965Y-113307762D01*
X165256277Y-113051168D01*
X165195860Y-112938137D01*
X164956993Y-112872612D01*
X164179605Y-113650000D01*
X163820395Y-113650000D01*
X163043007Y-112872612D01*
X162804140Y-112938137D01*
X162688240Y-113185116D01*
X162622750Y-113449960D01*
X162610188Y-113722492D01*
X135627000Y-113722492D01*
X135627000Y-112693007D01*
X163222612Y-112693007D01*
X164000000Y-113470395D01*
X164777388Y-112693007D01*
X164711863Y-112454140D01*
X164464884Y-112338240D01*
X164200040Y-112272750D01*
X163927508Y-112260188D01*
X163657762Y-112301035D01*
X163401168Y-112393723D01*
X163288137Y-112454140D01*
X163222612Y-112693007D01*
X135627000Y-112693007D01*
X135627000Y-112091653D01*
X165357952Y-112091653D01*
X165513962Y-112407214D01*
X165888745Y-112598020D01*
X166293551Y-112712044D01*
X166712824Y-112744902D01*
X167130451Y-112695334D01*
X167530383Y-112565243D01*
X167826038Y-112407214D01*
X167982048Y-112091653D01*
X166670000Y-110779605D01*
X165357952Y-112091653D01*
X135627000Y-112091653D01*
X135627000Y-110642824D01*
X164525098Y-110642824D01*
X164574666Y-111060451D01*
X164704757Y-111460383D01*
X164862786Y-111756038D01*
X165178347Y-111912048D01*
X166490395Y-110600000D01*
X166849605Y-110600000D01*
X168161653Y-111912048D01*
X168477214Y-111756038D01*
X168668020Y-111381255D01*
X168782044Y-110976449D01*
X168814902Y-110557176D01*
X168765334Y-110139549D01*
X168635243Y-109739617D01*
X168477214Y-109443962D01*
X168161653Y-109287952D01*
X166849605Y-110600000D01*
X166490395Y-110600000D01*
X165178347Y-109287952D01*
X164862786Y-109443962D01*
X164671980Y-109818745D01*
X164557956Y-110223551D01*
X164525098Y-110642824D01*
X135627000Y-110642824D01*
X135627000Y-109052000D01*
X165385809Y-109052000D01*
X165357952Y-109108347D01*
G36*
X134373000Y-125840000D02*
G01*
X126660000Y-125840000D01*
X126660000Y-119378363D01*
X127095000Y-119378363D01*
X127095000Y-119621637D01*
X127142460Y-119860236D01*
X127235557Y-120084992D01*
X127370713Y-120287267D01*
X127542733Y-120459287D01*
X127745008Y-120594443D01*
X127969764Y-120687540D01*
X128208363Y-120735000D01*
X128451637Y-120735000D01*
X128690236Y-120687540D01*
X128914992Y-120594443D01*
X129117267Y-120459287D01*
X129289287Y-120287267D01*
X129424443Y-120084992D01*
X129517540Y-119860236D01*
X129565000Y-119621637D01*
X129565000Y-119378363D01*
X129517540Y-119139764D01*
X129424443Y-118915008D01*
X129289287Y-118712733D01*
X129117267Y-118540713D01*
X128914992Y-118405557D01*
X128690236Y-118312460D01*
X128451637Y-118265000D01*
X128208363Y-118265000D01*
X127969764Y-118312460D01*
X127745008Y-118405557D01*
X127542733Y-118540713D01*
X127370713Y-118712733D01*
X127235557Y-118915008D01*
X127142460Y-119139764D01*
X127095000Y-119378363D01*
X126660000Y-119378363D01*
X126660000Y-114778363D01*
X127095000Y-114778363D01*
X127095000Y-115021637D01*
X127142460Y-115260236D01*
X127235557Y-115484992D01*
X127370713Y-115687267D01*
X127542733Y-115859287D01*
X127745008Y-115994443D01*
X127969764Y-116087540D01*
X128208363Y-116135000D01*
X128451637Y-116135000D01*
X128690236Y-116087540D01*
X128772200Y-116053589D01*
X129615000Y-116053589D01*
X129615000Y-116326411D01*
X129668225Y-116593989D01*
X129772629Y-116846043D01*
X129924201Y-117072886D01*
X130056315Y-117205000D01*
X129924201Y-117337114D01*
X129772629Y-117563957D01*
X129668225Y-117816011D01*
X129615000Y-118083589D01*
X129615000Y-118356411D01*
X129668225Y-118623989D01*
X129772629Y-118876043D01*
X129924201Y-119102886D01*
X130117114Y-119295799D01*
X130343957Y-119447371D01*
X130446873Y-119490000D01*
X130343957Y-119532629D01*
X130117114Y-119684201D01*
X129924201Y-119877114D01*
X129772629Y-120103957D01*
X129668225Y-120356011D01*
X129615000Y-120623589D01*
X129615000Y-120896411D01*
X129668225Y-121163989D01*
X129772629Y-121416043D01*
X129924201Y-121642886D01*
X130117114Y-121835799D01*
X130343957Y-121987371D01*
X130596011Y-122091775D01*
X130863589Y-122145000D01*
X131136411Y-122145000D01*
X131403989Y-122091775D01*
X131656043Y-121987371D01*
X131882886Y-121835799D01*
X132075799Y-121642886D01*
X132227371Y-121416043D01*
X132331775Y-121163989D01*
X132385000Y-120896411D01*
X132385000Y-120623589D01*
X132331775Y-120356011D01*
X132227371Y-120103957D01*
X132075799Y-119877114D01*
X131882886Y-119684201D01*
X131656043Y-119532629D01*
X131553127Y-119490000D01*
X131656043Y-119447371D01*
X131882886Y-119295799D01*
X132075799Y-119102886D01*
X132227371Y-118876043D01*
X132331775Y-118623989D01*
X132385000Y-118356411D01*
X132385000Y-118083589D01*
X132331775Y-117816011D01*
X132227371Y-117563957D01*
X132075799Y-117337114D01*
X131943685Y-117205000D01*
X132075799Y-117072886D01*
X132227371Y-116846043D01*
X132331775Y-116593989D01*
X132385000Y-116326411D01*
X132385000Y-116053589D01*
X132331775Y-115786011D01*
X132227371Y-115533957D01*
X132075799Y-115307114D01*
X131882886Y-115114201D01*
X131656043Y-114962629D01*
X131403989Y-114858225D01*
X131136411Y-114805000D01*
X130863589Y-114805000D01*
X130596011Y-114858225D01*
X130343957Y-114962629D01*
X130117114Y-115114201D01*
X129924201Y-115307114D01*
X129772629Y-115533957D01*
X129668225Y-115786011D01*
X129615000Y-116053589D01*
X128772200Y-116053589D01*
X128914992Y-115994443D01*
X129117267Y-115859287D01*
X129289287Y-115687267D01*
X129424443Y-115484992D01*
X129517540Y-115260236D01*
X129565000Y-115021637D01*
X129565000Y-114778363D01*
X129517540Y-114539764D01*
X129424443Y-114315008D01*
X129289287Y-114112733D01*
X129117267Y-113940713D01*
X128914992Y-113805557D01*
X128690236Y-113712460D01*
X128451637Y-113665000D01*
X128208363Y-113665000D01*
X127969764Y-113712460D01*
X127745008Y-113805557D01*
X127542733Y-113940713D01*
X127370713Y-114112733D01*
X127235557Y-114315008D01*
X127142460Y-114539764D01*
X127095000Y-114778363D01*
X126660000Y-114778363D01*
X126660000Y-109160000D01*
X134373000Y-109160000D01*
X134373000Y-125840000D01*
X134373000Y-125840000D01*
G37*
X134373000Y-125840000D02*
X126660000Y-125840000D01*
X126660000Y-119378363D01*
X127095000Y-119378363D01*
X127095000Y-119621637D01*
X127142460Y-119860236D01*
X127235557Y-120084992D01*
X127370713Y-120287267D01*
X127542733Y-120459287D01*
X127745008Y-120594443D01*
X127969764Y-120687540D01*
X128208363Y-120735000D01*
X128451637Y-120735000D01*
X128690236Y-120687540D01*
X128914992Y-120594443D01*
X129117267Y-120459287D01*
X129289287Y-120287267D01*
X129424443Y-120084992D01*
X129517540Y-119860236D01*
X129565000Y-119621637D01*
X129565000Y-119378363D01*
X129517540Y-119139764D01*
X129424443Y-118915008D01*
X129289287Y-118712733D01*
X129117267Y-118540713D01*
X128914992Y-118405557D01*
X128690236Y-118312460D01*
X128451637Y-118265000D01*
X128208363Y-118265000D01*
X127969764Y-118312460D01*
X127745008Y-118405557D01*
X127542733Y-118540713D01*
X127370713Y-118712733D01*
X127235557Y-118915008D01*
X127142460Y-119139764D01*
X127095000Y-119378363D01*
X126660000Y-119378363D01*
X126660000Y-114778363D01*
X127095000Y-114778363D01*
X127095000Y-115021637D01*
X127142460Y-115260236D01*
X127235557Y-115484992D01*
X127370713Y-115687267D01*
X127542733Y-115859287D01*
X127745008Y-115994443D01*
X127969764Y-116087540D01*
X128208363Y-116135000D01*
X128451637Y-116135000D01*
X128690236Y-116087540D01*
X128772200Y-116053589D01*
X129615000Y-116053589D01*
X129615000Y-116326411D01*
X129668225Y-116593989D01*
X129772629Y-116846043D01*
X129924201Y-117072886D01*
X130056315Y-117205000D01*
X129924201Y-117337114D01*
X129772629Y-117563957D01*
X129668225Y-117816011D01*
X129615000Y-118083589D01*
X129615000Y-118356411D01*
X129668225Y-118623989D01*
X129772629Y-118876043D01*
X129924201Y-119102886D01*
X130117114Y-119295799D01*
X130343957Y-119447371D01*
X130446873Y-119490000D01*
X130343957Y-119532629D01*
X130117114Y-119684201D01*
X129924201Y-119877114D01*
X129772629Y-120103957D01*
X129668225Y-120356011D01*
X129615000Y-120623589D01*
X129615000Y-120896411D01*
X129668225Y-121163989D01*
X129772629Y-121416043D01*
X129924201Y-121642886D01*
X130117114Y-121835799D01*
X130343957Y-121987371D01*
X130596011Y-122091775D01*
X130863589Y-122145000D01*
X131136411Y-122145000D01*
X131403989Y-122091775D01*
X131656043Y-121987371D01*
X131882886Y-121835799D01*
X132075799Y-121642886D01*
X132227371Y-121416043D01*
X132331775Y-121163989D01*
X132385000Y-120896411D01*
X132385000Y-120623589D01*
X132331775Y-120356011D01*
X132227371Y-120103957D01*
X132075799Y-119877114D01*
X131882886Y-119684201D01*
X131656043Y-119532629D01*
X131553127Y-119490000D01*
X131656043Y-119447371D01*
X131882886Y-119295799D01*
X132075799Y-119102886D01*
X132227371Y-118876043D01*
X132331775Y-118623989D01*
X132385000Y-118356411D01*
X132385000Y-118083589D01*
X132331775Y-117816011D01*
X132227371Y-117563957D01*
X132075799Y-117337114D01*
X131943685Y-117205000D01*
X132075799Y-117072886D01*
X132227371Y-116846043D01*
X132331775Y-116593989D01*
X132385000Y-116326411D01*
X132385000Y-116053589D01*
X132331775Y-115786011D01*
X132227371Y-115533957D01*
X132075799Y-115307114D01*
X131882886Y-115114201D01*
X131656043Y-114962629D01*
X131403989Y-114858225D01*
X131136411Y-114805000D01*
X130863589Y-114805000D01*
X130596011Y-114858225D01*
X130343957Y-114962629D01*
X130117114Y-115114201D01*
X129924201Y-115307114D01*
X129772629Y-115533957D01*
X129668225Y-115786011D01*
X129615000Y-116053589D01*
X128772200Y-116053589D01*
X128914992Y-115994443D01*
X129117267Y-115859287D01*
X129289287Y-115687267D01*
X129424443Y-115484992D01*
X129517540Y-115260236D01*
X129565000Y-115021637D01*
X129565000Y-114778363D01*
X129517540Y-114539764D01*
X129424443Y-114315008D01*
X129289287Y-114112733D01*
X129117267Y-113940713D01*
X128914992Y-113805557D01*
X128690236Y-113712460D01*
X128451637Y-113665000D01*
X128208363Y-113665000D01*
X127969764Y-113712460D01*
X127745008Y-113805557D01*
X127542733Y-113940713D01*
X127370713Y-114112733D01*
X127235557Y-114315008D01*
X127142460Y-114539764D01*
X127095000Y-114778363D01*
X126660000Y-114778363D01*
X126660000Y-109160000D01*
X134373000Y-109160000D01*
X134373000Y-125840000D01*
M02*
